<?xml version='1.0' encoding='UTF-8'?>
<svg xmlns="http://www.w3.org/2000/svg" xmlns:inkscape="http://www.inkscape.org/namespaces/inkscape" xmlns:sodipodi="http://sodipodi.sourceforge.net/DTD/sodipodi-0.dtd" width="576.0" height="576.0" viewBox="0 0.0 576.0 576.0" data-quilttools-block="1" data-quilttools-name="Drunkard's Path">
  <title>Drunkard's Path</title>
  <g id="fpp-quilttools-layer" inkscape:label="Quilt Tools FPP Regions" inkscape:groupmode="layer">
    <path d="M 336.0000,0.0000 L 576.0000,0.0000 L 576.0000,576.0000 L 0.0000,576.0000 L 0.0000,336.0000 L 21.9755,335.2806 L 43.8568,333.1255 L 65.5503,329.5439 L 86.9632,324.5511 L 108.0037,318.1685 L 128.5816,310.4235 L 148.6090,301.3492 L 168.0000,290.9845 L 186.6716,279.3738 L 204.5438,266.5667 L 221.5402,252.6182 L 237.5879,237.5879 L 252.6182,221.5402 L 266.5667,204.5438 L 279.3738,186.6716 L 290.9845,168.0000 L 301.3492,148.6090 L 310.4235,128.5816 L 318.1685,108.0037 L 324.5511,86.9632 L 329.5439,65.5503 L 333.1255,43.8568 L 335.2806,21.9755 Z" id="region-1-B1" style="fill:#EFE5D0;fill-opacity:0.80;stroke:#222222;stroke-width:1.0;stroke-linejoin:round" data-fpp-region-id="2"/><text x="341.00" y="341.00" style="font-size:11px;font-family:sans-serif;text-anchor:middle;dominant-baseline:middle;fill:#333333;pointer-events:none" sodipodi:insensitive="true">1-B1</text><path d="M 0.0000,336.0000 L 0.0000,0.0000 L 336.0000,0.0000 L 335.2806,21.9755 L 333.1255,43.8568 L 329.5439,65.5503 L 324.5511,86.9632 L 318.1685,108.0037 L 310.4235,128.5816 L 301.3492,148.6090 L 290.9845,168.0000 L 279.3738,186.6716 L 266.5667,204.5438 L 252.6182,221.5402 L 237.5879,237.5879 L 221.5402,252.6182 L 204.5438,266.5667 L 186.6716,279.3738 L 168.0000,290.9845 L 148.6090,301.3492 L 128.5816,310.4235 L 108.0037,318.1685 L 86.9632,324.5511 L 65.5503,329.5439 L 43.8568,333.1255 L 21.9755,335.2806 Z" id="region-2-A1" style="fill:#243B53;fill-opacity:0.80;stroke:#222222;stroke-width:1.0;stroke-linejoin:round" data-fpp-region-id="3"/><text x="142.55" y="142.55" style="font-size:11px;font-family:sans-serif;text-anchor:middle;dominant-baseline:middle;fill:#333333;pointer-events:none" sodipodi:insensitive="true">2-A1</text><desc id="fpp-tree-data-quilttools">{"tree": {"root_id": 1, "regions": {"1": {"id": 1, "label": "A1", "polygon": [[0, 0], [576.0, 0], [576.0, 576.0], [0, 576.0]], "parent_id": null, "children": [2, 3], "split_boundary": true}, "2": {"id": 2, "label": "1-B1", "polygon": [[336.0, 0.0], [576.0, 0], [576.0, 576.0], [0, 576.0], [0.0, 336.0], [21.9755, 335.2806], [43.8568, 333.1255], [65.5503, 329.5439], [86.9632, 324.5511], [108.0037, 318.1685], [128.5816, 310.4235], [148.609, 301.3492], [168.0, 290.9845], [186.6716, 279.3738], [204.5438, 266.5667], [221.5402, 252.6182], [237.5879, 237.5879], [252.6182, 221.5402], [266.5667, 204.5438], [279.3738, 186.6716], [290.9845, 168.0], [301.3492, 148.609], [310.4235, 128.5816], [318.1685, 108.0037], [324.5511, 86.9632], [329.5439, 65.5503], [333.1255, 43.8568], [335.2806, 21.9755]], "parent_id": 1, "children": [], "split_boundary": false}, "3": {"id": 3, "label": "2-A1", "polygon": [[0.0, 336.0], [0, 0], [336.0, 0.0], [335.2806, 21.9755], [333.1255, 43.8568], [329.5439, 65.5503], [324.5511, 86.9632], [318.1685, 108.0037], [310.4235, 128.5816], [301.3492, 148.609], [290.9845, 168.0], [279.3738, 186.6716], [266.5667, 204.5438], [252.6182, 221.5402], [237.5879, 237.5879], [221.5402, 252.6182], [204.5438, 266.5667], [186.6716, 279.3738], [168.0, 290.9845], [148.609, 301.3492], [128.5816, 310.4235], [108.0037, 318.1685], [86.9632, 324.5511], [65.5503, 329.5439], [43.8568, 333.1255], [21.9755, 335.2806]], "parent_id": 1, "children": [], "split_boundary": false}}, "curves": [[[336.0, 0.0], [335.2806, 21.9755], [333.1255, 43.8568], [329.5439, 65.5503], [324.5511, 86.9632], [318.1685, 108.0037], [310.4235, 128.5816], [301.3492, 148.609], [290.9845, 168.0], [279.3738, 186.6716], [266.5667, 204.5438], [252.6182, 221.5402], [237.5879, 237.5879], [221.5402, 252.6182], [204.5438, 266.5667], [186.6716, 279.3738], [168.0, 290.9845], [148.609, 301.3492], [128.5816, 310.4235], [108.0037, 318.1685], [86.9632, 324.5511], [65.5503, 329.5439], [43.8568, 333.1255], [21.9755, 335.2806], [0.0, 336.0]]]}, "prefs": {"show_sa": false, "sa_in": 0.25, "color_mode": "piece", "custom_colors": {"2": "#EFE5D0", "3": "#243B53"}, "group_by_color": false, "description": "The foundational quarter-circle unit - one gentle curved seam.", "tags": ["curve", "unit"]}}</desc></g>
</svg>
