<?xml version='1.0' encoding='UTF-8'?>
<svg xmlns="http://www.w3.org/2000/svg" xmlns:inkscape="http://www.inkscape.org/namespaces/inkscape" xmlns:sodipodi="http://sodipodi.sourceforge.net/DTD/sodipodi-0.dtd" width="576.0" height="576.0" viewBox="0 0.0 576.0 576.0" data-quilttools-block="1" data-quilttools-name="Orange Peel">
  <title>Orange Peel</title>
  <g id="fpp-quilttools-layer" inkscape:label="Quilt Tools FPP Regions" inkscape:groupmode="layer">
    <path d="M 574.6219,0.0000 L 573.9297,28.1954 L 571.8549,56.3228 L 568.4025,84.3145 L 563.5807,112.1032 L 557.4012,139.6217 L 549.8789,166.8039 L 541.0318,193.5843 L 530.8814,219.8983 L 519.4520,245.6825 L 506.7713,270.8749 L 492.8696,295.4147 L 477.7806,319.2428 L 461.5406,342.3019 L 444.1887,364.5363 L 425.7667,385.8925 L 406.3190,406.3190 L 385.8925,425.7667 L 364.5363,444.1887 L 342.3019,461.5406 L 319.2428,477.7806 L 295.4147,492.8696 L 270.8749,506.7713 L 245.6825,519.4520 L 219.8983,530.8814 L 193.5843,541.0318 L 166.8039,549.8789 L 139.6217,557.4012 L 112.1032,563.5807 L 84.3145,568.4025 L 56.3228,571.8549 L 28.1954,573.9297 L 0.0000,574.6219 L 0.6922,546.4265 L 2.7670,518.2991 L 6.2194,490.3074 L 11.0412,462.5187 L 17.2207,435.0002 L 24.7430,407.8180 L 33.5901,381.0376 L 43.7405,354.7236 L 55.1699,328.9394 L 67.8506,303.7470 L 81.7523,279.2072 L 96.8412,255.3791 L 113.0813,232.3200 L 130.4332,210.0856 L 148.8552,188.7294 L 168.3029,168.3029 L 188.7294,148.8552 L 210.0856,130.4332 L 232.3200,113.0813 L 255.3791,96.8413 L 279.2072,81.7523 L 303.7470,67.8506 L 328.9394,55.1699 L 354.7236,43.7405 L 381.0376,33.5901 L 407.8180,24.7430 L 435.0002,17.2207 L 462.5187,11.0412 L 490.3073,6.2194 L 518.2991,2.7670 L 546.4265,0.6922 Z" id="region-1-B1" style="fill:#d6eaf8;fill-opacity:0.80;stroke:#222222;stroke-width:1.0;stroke-linejoin:round" data-fpp-region-id="6"/><text x="287.31" y="287.31" style="font-size:11px;font-family:sans-serif;text-anchor:middle;dominant-baseline:middle;fill:#333333;pointer-events:none" sodipodi:insensitive="true">1-B1</text><path d="M 0.0000,574.6219 L 0.0000,0.0000 L 574.6219,0.0000 L 546.4265,0.6922 L 518.2991,2.7670 L 490.3073,6.2194 L 462.5187,11.0412 L 435.0002,17.2207 L 407.8180,24.7430 L 381.0376,33.5901 L 354.7236,43.7405 L 328.9394,55.1699 L 303.7470,67.8506 L 279.2072,81.7523 L 255.3791,96.8413 L 232.3200,113.0813 L 210.0856,130.4332 L 188.7294,148.8552 L 168.3029,168.3029 L 148.8552,188.7294 L 130.4332,210.0856 L 113.0813,232.3200 L 96.8412,255.3791 L 81.7523,279.2072 L 67.8506,303.7470 L 55.1699,328.9394 L 43.7405,354.7236 L 33.5901,381.0376 L 24.7430,407.8180 L 17.2207,435.0002 L 11.0412,462.5187 L 6.2194,490.3074 L 2.7670,518.2991 L 0.6922,546.4265 Z" id="region-2-A1" style="fill:#d5f5e3;fill-opacity:0.80;stroke:#222222;stroke-width:1.0;stroke-linejoin:round" data-fpp-region-id="7"/><text x="128.47" y="128.47" style="font-size:11px;font-family:sans-serif;text-anchor:middle;dominant-baseline:middle;fill:#333333;pointer-events:none" sodipodi:insensitive="true">2-A1</text><path d="M 574.6219,0.0000 L 576.0000,0.0000 L 576.0000,576.0000 L 0.0000,576.0000 L 0.0000,574.6219 L 28.1954,573.9297 L 56.3228,571.8549 L 84.3145,568.4025 L 112.1032,563.5807 L 139.6217,557.4012 L 166.8039,549.8789 L 193.5843,541.0318 L 219.8983,530.8814 L 245.6825,519.4520 L 270.8749,506.7713 L 295.4147,492.8696 L 319.2428,477.7806 L 342.3019,461.5406 L 364.5363,444.1887 L 385.8925,425.7667 L 406.3190,406.3190 L 425.7667,385.8925 L 444.1887,364.5363 L 461.5406,342.3019 L 477.7806,319.2428 L 492.8696,295.4147 L 506.7713,270.8749 L 519.4520,245.6825 L 530.8814,219.8983 L 541.0318,193.5843 L 549.8789,166.8039 L 557.4012,139.6217 L 563.5807,112.1032 L 568.4025,84.3145 L 571.8549,56.3228 L 573.9297,28.1954 Z" id="region-3-C1" style="fill:#fef9e7;fill-opacity:0.80;stroke:#222222;stroke-width:1.0;stroke-linejoin:round" data-fpp-region-id="3"/><text x="445.83" y="445.83" style="font-size:11px;font-family:sans-serif;text-anchor:middle;dominant-baseline:middle;fill:#333333;pointer-events:none" sodipodi:insensitive="true">3-C1</text><desc id="fpp-tree-data-quilttools">{"tree": {"root_id": 1, "regions": {"1": {"id": 1, "label": "A1", "polygon": [[0, 0.0], [576.0, 0.0], [576.0, 576.0], [0, 576.0]], "parent_id": null, "children": [3, 4], "split_boundary": true}, "3": {"id": 3, "label": "3-C1", "polygon": [[574.6218899999999, 0.0], [576.0, 0.0], [576.0, 576.0], [0, 576.0], [0.0, 574.6218970333481], [28.1954, 573.9297], [56.3228, 571.8549], [84.3145, 568.4025], [112.1032, 563.5807], [139.6217, 557.4012], [166.8039, 549.8789], [193.5843, 541.0318], [219.8983, 530.8814], [245.6825, 519.452], [270.8749, 506.7713], [295.4147, 492.8696], [319.2428, 477.7806], [342.3019, 461.5406], [364.5363, 444.1887], [385.8925, 425.7667], [406.319, 406.319], [425.7667, 385.8925], [444.1887, 364.5363], [461.5406, 342.3019], [477.7806, 319.2428], [492.8696, 295.4147], [506.7713, 270.8749], [519.452, 245.6825], [530.8814, 219.8983], [541.0318, 193.5843], [549.8789, 166.8039], [557.4012, 139.6217], [563.5807, 112.1032], [568.4025, 84.3145], [571.8549, 56.3228], [573.9297, 28.1954]], "parent_id": 1, "children": [], "split_boundary": false}, "4": {"id": 4, "label": "A2", "polygon": [[0.0, 574.6218970333481], [0, 0.0], [574.6218899999999, 0.0], [573.9297, 28.1954], [571.8549, 56.3228], [568.4025, 84.3145], [563.5807, 112.1032], [557.4012, 139.6217], [549.8789, 166.8039], [541.0318, 193.5843], [530.8814, 219.8983], [519.452, 245.6825], [506.7713, 270.8749], [492.8696, 295.4147], [477.7806, 319.2428], [461.5406, 342.3019], [444.1887, 364.5363], [425.7667, 385.8925], [406.319, 406.319], [385.8925, 425.7667], [364.5363, 444.1887], [342.3019, 461.5406], [319.2428, 477.7806], [295.4147, 492.8696], [270.8749, 506.7713], [245.6825, 519.452], [219.8983, 530.8814], [193.5843, 541.0318], [166.8039, 549.8789], [139.6217, 557.4012], [112.1032, 563.5807], [84.3145, 568.4025], [56.3228, 571.8549], [28.1954, 573.9297]], "parent_id": 1, "children": [6, 7], "split_boundary": true}, "6": {"id": 6, "label": "1-B1", "polygon": [[574.6218899999999, 0.0], [573.9297, 28.1954], [571.8549, 56.3228], [568.4025, 84.3145], [563.5807, 112.1032], [557.4012, 139.6217], [549.8789, 166.8039], [541.0318, 193.5843], [530.8814, 219.8983], [519.452, 245.6825], [506.7713, 270.8749], [492.8696, 295.4147], [477.7806, 319.2428], [461.5406, 342.3019], [444.1887, 364.5363], [425.7667, 385.8925], [406.319, 406.319], [385.8925, 425.7667], [364.5363, 444.1887], [342.3019, 461.5406], [319.2428, 477.7806], [295.4147, 492.8696], [270.8749, 506.7713], [245.6825, 519.452], [219.8983, 530.8814], [193.5843, 541.0318], [166.8039, 549.8789], [139.6217, 557.4012], [112.1032, 563.5807], [84.3145, 568.4025], [56.3228, 571.8549], [28.1954, 573.9297], [1.1723955140041653e-13, 574.6218970333481], [0.6922, 546.4265], [2.767, 518.2991], [6.2194, 490.3074], [11.0412, 462.5187], [17.2207, 435.0002], [24.743, 407.818], [33.5901, 381.0376], [43.7405, 354.7236], [55.1699, 328.9394], [67.8506, 303.747], [81.7523, 279.2072], [96.8412, 255.3791], [113.0813, 232.32], [130.4332, 210.0856], [148.8552, 188.7294], [168.3029, 168.3029], [188.7294, 148.8552], [210.0856, 130.4332], [232.32, 113.0813], [255.3791, 96.8413], [279.2072, 81.7523], [303.747, 67.8506], [328.9394, 55.1699], [354.7236, 43.7405], [381.0376, 33.5901], [407.818, 24.743], [435.0002, 17.2207], [462.5187, 11.0412], [490.3073, 6.2194], [518.2991, 2.767], [546.4265, 0.6922]], "parent_id": 4, "children": [], "split_boundary": false}, "7": {"id": 7, "label": "2-A1", "polygon": [[1.1723955140041653e-13, 574.6218970333481], [0, 0.0], [574.6218899999999, 0.0], [546.4265, 0.6922], [518.2991, 2.767], [490.3073, 6.2194], [462.5187, 11.0412], [435.0002, 17.2207], [407.818, 24.743], [381.0376, 33.5901], [354.7236, 43.7405], [328.9394, 55.1699], [303.747, 67.8506], [279.2072, 81.7523], [255.3791, 96.8413], [232.32, 113.0813], [210.0856, 130.4332], [188.7294, 148.8552], [168.3029, 168.3029], [148.8552, 188.7294], [130.4332, 210.0856], [113.0813, 232.32], [96.8412, 255.3791], [81.7523, 279.2072], [67.8506, 303.747], [55.1699, 328.9394], [43.7405, 354.7236], [33.5901, 381.0376], [24.743, 407.818], [17.2207, 435.0002], [11.0412, 462.5187], [6.2194, 490.3074], [2.767, 518.2991], [0.6922, 546.4265]], "parent_id": 4, "children": [], "split_boundary": false}}, "curves": [[[574.6219, 0.0], [573.9297, 28.1954], [571.8549, 56.3228], [568.4025, 84.3145], [563.5807, 112.1032], [557.4012, 139.6217], [549.8789, 166.8039], [541.0318, 193.5843], [530.8814, 219.8983], [519.452, 245.6825], [506.7713, 270.8749], [492.8696, 295.4147], [477.7806, 319.2428], [461.5406, 342.3019], [444.1887, 364.5363], [425.7667, 385.8925], [406.319, 406.319], [385.8925, 425.7667], [364.5363, 444.1887], [342.3019, 461.5406], [319.2428, 477.7806], [295.4147, 492.8696], [270.8749, 506.7713], [245.6825, 519.452], [219.8983, 530.8814], [193.5843, 541.0318], [166.8039, 549.8789], [139.6217, 557.4012], [112.1032, 563.5807], [84.3145, 568.4025], [56.3228, 571.8549], [28.1954, 573.9297], [0.0, 574.6219]], [[574.6219, 0.0], [546.4265, 0.6922], [518.2991, 2.767], [490.3073, 6.2194], [462.5187, 11.0412], [435.0002, 17.2207], [407.818, 24.743], [381.0376, 33.5901], [354.7236, 43.7405], [328.9394, 55.1699], [303.747, 67.8506], [279.2072, 81.7523], [255.3791, 96.8413], [232.32, 113.0813], [210.0856, 130.4332], [188.7294, 148.8552], [168.3029, 168.3029], [148.8552, 188.7294], [130.4332, 210.0856], [113.0813, 232.32], [96.8412, 255.3791], [81.7523, 279.2072], [67.8506, 303.747], [55.1699, 328.9394], [43.7405, 354.7236], [33.5901, 381.0376], [24.743, 407.818], [17.2207, 435.0002], [11.0412, 462.5187], [6.2194, 490.3074], [2.767, 518.2991], [0.6922, 546.4265], [0.0, 574.6219]]]}, "prefs": {"show_sa": false, "sa_in": 0.25, "color_mode": "piece", "custom_colors": {}}}</desc></g>
</svg>
