<?xml version='1.0' encoding='UTF-8'?>
<svg xmlns="http://www.w3.org/2000/svg" xmlns:inkscape="http://www.inkscape.org/namespaces/inkscape" xmlns:sodipodi="http://sodipodi.sourceforge.net/DTD/sodipodi-0.dtd" width="576.0" height="576.0" viewBox="0.0 0.0 576.0 576.0" data-quilttools-block="1" data-quilttools-name="Winding Ways">
  <title>Winding Ways</title>
  <g id="fpp-quilttools-layer" inkscape:label="Quilt Tools FPP Regions" inkscape:groupmode="layer">
    <path d="M 201.0000,0.0000 L 375.0000,0.0000 L 374.7109,14.7224 L 373.8440,29.4222 L 372.4007,44.0765 L 370.3831,58.6629 L 367.7945,73.1589 L 364.6387,87.5420 L 360.9207,101.7902 L 356.6462,115.8814 L 351.8218,129.7939 L 346.4548,143.5063 L 340.5537,156.9974 L 334.1274,170.2464 L 327.1860,183.2330 L 319.7401,195.9370 L 311.8011,208.3388 L 303.3814,220.4195 L 294.4938,232.1602 L 287.9604,240.1212 L 283.8325,235.0811 L 279.7927,229.9701 L 275.8423,224.7896 L 271.9826,219.5413 L 268.2145,214.2268 L 264.5394,208.8476 L 260.9583,203.4053 L 257.4723,197.9017 L 254.0824,192.3383 L 250.7896,186.7169 L 247.5950,181.0392 L 244.4996,175.3068 L 241.5041,169.5214 L 238.6097,163.6850 L 235.8170,157.7991 L 233.1271,151.8656 L 230.5406,145.8862 L 228.0584,139.8629 L 225.6812,133.7973 L 223.4097,127.6913 L 221.2446,121.5468 L 219.1866,115.3656 L 217.2363,109.1496 L 215.3943,102.9007 L 213.6611,96.6207 L 212.0373,90.3115 L 210.5233,83.9751 L 209.1197,77.6133 L 207.8267,71.2281 L 206.6449,64.8214 L 205.5746,58.3952 L 204.6160,51.9513 L 203.7696,45.4917 L 203.0354,39.0184 L 202.4139,32.5334 L 201.9051,26.0385 L 201.5092,19.5357 L 201.2263,13.0271 L 201.0566,6.5145 Z" id="region-A1" style="fill:#243B53;fill-opacity:0.80;stroke:#222222;stroke-width:1.0;stroke-linejoin:round" data-fpp-region-id="6"/>
    <text x="287.98" y="91.62" style="font-size:11px;font-family:sans-serif;text-anchor:middle;dominant-baseline:middle;fill:#333333;pointer-events:none">A1</text>
    <path d="M 0.0000,201.0000 L 0.0000,0.0000 L 201.0000,0.0000 L 201.0566,6.5145 L 201.2263,13.0271 L 201.5092,19.5357 L 201.9051,26.0385 L 202.4139,32.5334 L 203.0354,39.0184 L 203.7696,45.4917 L 204.6160,51.9513 L 205.5746,58.3952 L 206.6449,64.8214 L 207.8267,71.2281 L 209.1197,77.6133 L 210.5233,83.9751 L 212.0373,90.3115 L 213.6611,96.6207 L 215.3943,102.9007 L 217.2363,109.1496 L 219.1866,115.3656 L 221.2446,121.5468 L 223.4097,127.6913 L 225.6812,133.7973 L 228.0584,139.8629 L 230.5406,145.8862 L 233.1271,151.8656 L 235.8170,157.7991 L 238.6097,163.6850 L 241.5041,169.5214 L 244.4996,175.3068 L 247.5950,181.0392 L 250.7896,186.7169 L 254.0824,192.3383 L 257.4723,197.9017 L 260.9583,203.4053 L 264.5394,208.8476 L 268.2145,214.2268 L 271.9826,219.5413 L 275.8423,224.7896 L 279.7927,229.9701 L 283.8325,235.0811 L 287.9604,240.1212 L 285.1522,243.5430 L 275.3709,254.5503 L 265.1650,265.1650 L 254.5503,275.3709 L 243.5430,285.1522 L 240.1212,287.9604 L 235.0811,283.8325 L 229.9701,279.7927 L 224.7896,275.8423 L 219.5413,271.9826 L 214.2268,268.2145 L 208.8476,264.5394 L 203.4053,260.9583 L 197.9017,257.4723 L 192.3383,254.0824 L 186.7169,250.7896 L 181.0392,247.5950 L 175.3068,244.4996 L 169.5214,241.5041 L 163.6850,238.6097 L 157.7991,235.8170 L 151.8656,233.1271 L 145.8862,230.5406 L 139.8629,228.0584 L 133.7973,225.6812 L 127.6913,223.4097 L 121.5468,221.2446 L 115.3656,219.1866 L 109.1496,217.2363 L 102.9007,215.3943 L 96.6207,213.6611 L 90.3115,212.0373 L 83.9751,210.5233 L 77.6133,209.1197 L 71.2281,207.8267 L 64.8214,206.6449 L 58.3952,205.5746 L 51.9513,204.6160 L 45.4917,203.7696 L 39.0184,203.0354 L 32.5334,202.4139 L 26.0385,201.9051 L 19.5357,201.5092 L 13.0271,201.2263 L 6.5145,201.0566 Z" id="region-B1" style="fill:#A4BBA0;fill-opacity:0.80;stroke:#222222;stroke-width:1.0;stroke-linejoin:round" data-fpp-region-id="13"/>
    <text x="126.26" y="126.26" style="font-size:11px;font-family:sans-serif;text-anchor:middle;dominant-baseline:middle;fill:#333333;pointer-events:none">B1</text>
    <path d="M 335.8447,287.9888 L 334.2171,286.6462 L 327.9989,281.2836 L 321.8996,275.7861 L 315.9221,270.1564 L 310.0693,264.3972 L 304.3441,258.5112 L 298.7490,252.5013 L 293.2869,246.3703 L 287.9604,240.1212 L 294.4938,232.1602 L 303.3814,220.4195 L 311.8011,208.3388 L 319.7401,195.9370 L 327.1860,183.2330 L 334.1274,170.2464 L 340.5537,156.9974 L 346.4548,143.5063 L 351.8218,129.7939 L 356.6462,115.8814 L 360.9207,101.7902 L 364.6387,87.5420 L 367.7945,73.1589 L 370.3831,58.6629 L 372.4007,44.0765 L 373.8440,29.4222 L 374.7109,14.7224 L 375.0000,0.0000 L 576.0000,0.0000 L 576.0000,201.0000 L 569.4844,201.0566 L 562.9707,201.2264 L 556.4609,201.5094 L 549.9571,201.9054 L 543.4611,202.4144 L 536.9749,203.0361 L 530.5006,203.7705 L 524.0399,204.6172 L 517.5950,205.5761 L 511.1676,206.6468 L 504.7599,207.8291 L 498.3737,209.1224 L 492.0109,210.5266 L 485.6734,212.0411 L 479.3632,213.6654 L 473.0822,215.3992 L 466.8323,217.2418 L 460.6154,219.1928 L 454.4332,221.2515 L 448.2878,223.4173 L 442.1809,225.6895 L 436.1145,228.0675 L 430.0902,230.5505 L 424.1101,233.1379 L 418.1757,235.8287 L 412.2891,238.6223 L 406.4518,241.5177 L 400.6658,244.5141 L 394.9326,247.6106 L 389.2542,250.8062 L 383.6321,254.1000 L 378.0681,257.4910 L 372.5639,260.9782 L 367.1211,264.5604 L 361.7413,268.2367 L 356.4263,272.0060 L 351.1775,275.8670 L 345.9966,279.8186 L 340.8852,283.8596 Z" id="region-C1" style="fill:#A4BBA0;fill-opacity:0.80;stroke:#222222;stroke-width:1.0;stroke-linejoin:round" data-fpp-region-id="11"/>
    <text x="449.71" y="126.27" style="font-size:11px;font-family:sans-serif;text-anchor:middle;dominant-baseline:middle;fill:#333333;pointer-events:none">C1</text>
    <path d="M 240.1212,287.9604 L 232.1602,294.4938 L 220.4195,303.3814 L 208.3388,311.8011 L 195.9370,319.7401 L 183.2330,327.1860 L 170.2464,334.1274 L 156.9974,340.5537 L 143.5063,346.4548 L 129.7939,351.8218 L 115.8814,356.6462 L 101.7902,360.9207 L 87.5420,364.6387 L 73.1589,367.7945 L 58.6629,370.3831 L 44.0765,372.4007 L 29.4222,373.8440 L 14.7224,374.7109 L 0.0000,375.0000 L 0.0000,201.0000 L 6.5145,201.0566 L 13.0271,201.2263 L 19.5357,201.5092 L 26.0385,201.9051 L 32.5334,202.4139 L 39.0184,203.0354 L 45.4917,203.7696 L 51.9513,204.6160 L 58.3952,205.5746 L 64.8214,206.6449 L 71.2281,207.8267 L 77.6133,209.1197 L 83.9751,210.5233 L 90.3115,212.0373 L 96.6207,213.6611 L 102.9007,215.3943 L 109.1496,217.2363 L 115.3656,219.1866 L 121.5468,221.2446 L 127.6913,223.4097 L 133.7973,225.6812 L 139.8629,228.0584 L 145.8862,230.5406 L 151.8656,233.1271 L 157.7991,235.8170 L 163.6850,238.6097 L 169.5214,241.5041 L 175.3068,244.4996 L 181.0392,247.5950 L 186.7169,250.7896 L 192.3383,254.0824 L 197.9017,257.4723 L 203.4053,260.9583 L 208.8476,264.5394 L 214.2268,268.2145 L 219.5413,271.9826 L 224.7896,275.8423 L 229.9701,279.7927 L 235.0811,283.8325 Z" id="region-D1" style="fill:#243B53;fill-opacity:0.80;stroke:#222222;stroke-width:1.0;stroke-linejoin:round" data-fpp-region-id="12"/>
    <text x="91.62" y="287.98" style="font-size:11px;font-family:sans-serif;text-anchor:middle;dominant-baseline:middle;fill:#333333;pointer-events:none">D1</text>
    <path d="M 240.1212,287.9604 L 243.5430,285.1522 L 254.5503,275.3709 L 265.1650,265.1650 L 275.3709,254.5503 L 285.1522,243.5430 L 287.9604,240.1212 L 293.2869,246.3703 L 298.7490,252.5013 L 304.3441,258.5112 L 310.0693,264.3972 L 315.9221,270.1564 L 321.8996,275.7861 L 327.9989,281.2836 L 334.2171,286.6462 L 335.8447,287.9888 L 329.5971,293.3154 L 323.4675,298.7775 L 317.4590,304.3724 L 311.5744,310.0975 L 305.8166,315.9501 L 300.1883,321.9274 L 294.6922,328.0264 L 289.3309,334.2443 L 288.0110,335.8446 L 286.9224,334.5449 L 285.8278,333.2502 L 284.7274,331.9605 L 283.6212,330.6757 L 282.5092,329.3960 L 281.3914,328.1213 L 280.2679,326.8517 L 279.1387,325.5871 L 278.0037,324.3277 L 276.8631,323.0734 L 275.7168,321.8243 L 274.5648,320.5804 L 273.4073,319.3417 L 272.2441,318.1083 L 271.0754,316.8801 L 269.9012,315.6572 L 268.7214,314.4397 L 267.5362,313.2275 L 266.3454,312.0206 L 265.1493,310.8192 L 263.9477,309.6232 L 262.7407,308.4326 L 261.5284,307.2475 L 260.3107,306.0679 L 259.0876,304.8938 L 257.8593,303.7252 L 256.6258,302.5622 L 255.3869,301.4048 L 254.1429,300.2530 L 252.8936,299.1069 L 251.6392,297.9664 L 250.3797,296.8316 L 249.1150,295.7025 L 247.8452,294.5791 L 246.5704,293.4614 L 245.2905,292.3496 L 244.0057,291.2435 L 242.7158,290.1433 L 241.4210,289.0489 Z" id="region-E1" style="fill:#EFE5D0;fill-opacity:0.80;stroke:#222222;stroke-width:1.0;stroke-linejoin:round" data-fpp-region-id="14"/>
    <text x="287.99" y="287.98" style="font-size:11px;font-family:sans-serif;text-anchor:middle;dominant-baseline:middle;fill:#333333;pointer-events:none">E1</text>
    <path d="M 576.0000,201.0000 L 576.0000,375.0000 L 567.7893,374.9101 L 559.5825,374.6405 L 551.3837,374.1912 L 543.1966,373.5625 L 535.0252,372.7547 L 526.8735,371.7682 L 518.7454,370.6034 L 510.6447,369.2610 L 502.5753,367.7415 L 494.5411,366.0457 L 486.5460,364.1744 L 478.5938,362.1285 L 470.6883,359.9089 L 462.8332,357.5168 L 455.0325,354.9533 L 447.2897,352.2196 L 439.6086,349.3170 L 431.9930,346.2470 L 424.4464,343.0109 L 416.9724,339.6104 L 409.5747,336.0470 L 402.2568,332.3226 L 395.0222,328.4388 L 387.8743,324.3975 L 380.8167,320.2007 L 373.8526,315.8503 L 366.9855,311.3486 L 360.2186,306.6975 L 353.5551,301.8994 L 346.9983,296.9566 L 340.5512,291.8713 L 335.8447,287.9888 L 340.8852,283.8596 L 345.9966,279.8186 L 351.1775,275.8670 L 356.4263,272.0060 L 361.7413,268.2367 L 367.1211,264.5604 L 372.5639,260.9782 L 378.0681,257.4910 L 383.6321,254.1000 L 389.2542,250.8062 L 394.9326,247.6106 L 400.6658,244.5141 L 406.4518,241.5177 L 412.2891,238.6223 L 418.1757,235.8287 L 424.1101,233.1379 L 430.0902,230.5505 L 436.1145,228.0675 L 442.1809,225.6895 L 448.2878,223.4173 L 454.4332,221.2515 L 460.6154,219.1928 L 466.8323,217.2418 L 473.0822,215.3992 L 479.3632,213.6654 L 485.6734,212.0411 L 492.0109,210.5266 L 498.3737,209.1224 L 504.7599,207.8291 L 511.1676,206.6468 L 517.5950,205.5761 L 524.0399,204.6172 L 530.5006,203.7705 L 536.9749,203.0361 L 543.4611,202.4144 L 549.9571,201.9054 L 556.4609,201.5094 L 562.9707,201.2264 L 569.4844,201.0566 Z" id="region-F1" style="fill:#243B53;fill-opacity:0.80;stroke:#222222;stroke-width:1.0;stroke-linejoin:round" data-fpp-region-id="10"/>
    <text x="484.37" y="288.00" style="font-size:11px;font-family:sans-serif;text-anchor:middle;dominant-baseline:middle;fill:#333333;pointer-events:none">F1</text>
    <path d="M 288.0110,335.8446 L 284.1070,340.5780 L 279.0231,347.0246 L 274.0815,353.5810 L 269.2846,360.2440 L 264.6347,367.0104 L 260.1341,373.8769 L 255.7849,380.8404 L 251.5891,387.8974 L 247.5489,395.0445 L 243.6661,402.2784 L 239.9426,409.5956 L 236.3802,416.9925 L 232.9806,424.4657 L 229.7453,432.0114 L 226.6761,439.6262 L 223.7743,447.3064 L 221.0413,455.0482 L 218.4785,462.8481 L 216.0870,470.7021 L 213.8681,478.6066 L 211.8227,486.5579 L 209.9519,494.5520 L 208.2565,502.5851 L 206.7375,510.6534 L 205.3954,518.7530 L 204.2309,526.8801 L 203.2447,535.0307 L 202.4371,543.2010 L 201.8086,551.3870 L 201.3595,559.5848 L 201.0899,567.7904 L 201.0000,576.0000 L 0.0000,576.0000 L 0.0000,375.0000 L 14.7224,374.7109 L 29.4222,373.8440 L 44.0765,372.4007 L 58.6629,370.3831 L 73.1589,367.7945 L 87.5420,364.6387 L 101.7902,360.9207 L 115.8814,356.6462 L 129.7939,351.8218 L 143.5063,346.4548 L 156.9974,340.5537 L 170.2464,334.1274 L 183.2330,327.1860 L 195.9370,319.7401 L 208.3388,311.8011 L 220.4195,303.3814 L 232.1602,294.4938 L 240.1212,287.9604 L 241.4210,289.0489 L 242.7158,290.1433 L 244.0057,291.2435 L 245.2905,292.3496 L 246.5704,293.4614 L 247.8452,294.5791 L 249.1150,295.7025 L 250.3797,296.8316 L 251.6392,297.9664 L 252.8936,299.1069 L 254.1429,300.2530 L 255.3869,301.4048 L 256.6258,302.5622 L 257.8593,303.7252 L 259.0876,304.8938 L 260.3107,306.0679 L 261.5284,307.2475 L 262.7407,308.4326 L 263.9477,309.6232 L 265.1493,310.8192 L 266.3454,312.0206 L 267.5362,313.2275 L 268.7214,314.4397 L 269.9012,315.6572 L 271.0754,316.8801 L 272.2441,318.1083 L 273.4073,319.3417 L 274.5648,320.5804 L 275.7168,321.8243 L 276.8631,323.0734 L 278.0037,324.3277 L 279.1387,325.5871 L 280.2679,326.8517 L 281.3914,328.1213 L 282.5092,329.3960 L 283.6212,330.6757 L 284.7274,331.9605 L 285.8278,333.2502 L 286.9224,334.5449 Z" id="region-G1" style="fill:#A4BBA0;fill-opacity:0.80;stroke:#222222;stroke-width:1.0;stroke-linejoin:round" data-fpp-region-id="15"/>
    <text x="126.27" y="449.71" style="font-size:11px;font-family:sans-serif;text-anchor:middle;dominant-baseline:middle;fill:#333333;pointer-events:none">G1</text>
    <path d="M 288.0110,335.8446 L 289.3309,334.2443 L 294.6922,328.0264 L 300.1883,321.9274 L 305.8166,315.9501 L 311.5744,310.0975 L 317.4590,304.3724 L 323.4675,298.7775 L 329.5971,293.3154 L 335.8447,287.9888 L 340.5512,291.8713 L 346.9983,296.9566 L 353.5551,301.8994 L 360.2186,306.6975 L 366.9855,311.3486 L 373.8526,315.8503 L 380.8167,320.2007 L 387.8743,324.3975 L 395.0222,328.4388 L 402.2568,332.3226 L 409.5747,336.0470 L 416.9724,339.6104 L 424.4464,343.0109 L 431.9930,346.2470 L 439.6086,349.3170 L 447.2897,352.2196 L 455.0325,354.9533 L 462.8332,357.5168 L 470.6883,359.9089 L 478.5938,362.1285 L 486.5460,364.1744 L 494.5411,366.0457 L 502.5753,367.7415 L 510.6447,369.2610 L 518.7454,370.6034 L 526.8735,371.7682 L 535.0252,372.7547 L 543.1966,373.5625 L 551.3837,374.1912 L 559.5825,374.6405 L 567.7893,374.9101 L 576.0000,375.0000 L 576.0000,576.0000 L 375.0000,576.0000 L 374.9434,569.4843 L 374.7736,562.9707 L 374.4906,556.4609 L 374.0946,549.9571 L 373.5856,543.4611 L 372.9639,536.9749 L 372.2295,530.5005 L 371.3827,524.0399 L 370.4239,517.5949 L 369.3532,511.1676 L 368.1709,504.7598 L 366.8776,498.3736 L 365.4734,492.0108 L 363.9589,485.6733 L 362.3345,479.3632 L 360.6008,473.0822 L 358.7581,466.8322 L 356.8072,460.6153 L 354.7485,454.4331 L 352.5827,448.2877 L 350.3105,442.1808 L 347.9325,436.1144 L 345.4494,430.0901 L 342.8621,424.1100 L 340.1712,418.1756 L 337.3777,412.2890 L 334.4822,406.4517 L 331.4858,400.6656 L 328.3894,394.9325 L 325.1937,389.2541 L 321.8999,383.6320 L 318.5089,378.0680 L 315.0217,372.5638 L 311.4395,367.1209 L 307.7632,361.7412 L 303.9939,356.4261 L 300.1329,351.1774 L 296.1813,345.9965 L 292.1403,340.8850 Z" id="region-H1" style="fill:#A4BBA0;fill-opacity:0.80;stroke:#222222;stroke-width:1.0;stroke-linejoin:round" data-fpp-region-id="17"/>
    <text x="449.73" y="449.73" style="font-size:11px;font-family:sans-serif;text-anchor:middle;dominant-baseline:middle;fill:#333333;pointer-events:none">H1</text>
    <path d="M 375.0000,576.0000 L 201.0000,576.0000 L 201.0899,567.7904 L 201.3595,559.5848 L 201.8086,551.3870 L 202.4371,543.2010 L 203.2447,535.0307 L 204.2309,526.8801 L 205.3954,518.7530 L 206.7375,510.6534 L 208.2565,502.5851 L 209.9519,494.5520 L 211.8227,486.5579 L 213.8681,478.6066 L 216.0870,470.7021 L 218.4785,462.8481 L 221.0413,455.0482 L 223.7743,447.3064 L 226.6761,439.6262 L 229.7453,432.0114 L 232.9806,424.4657 L 236.3802,416.9925 L 239.9426,409.5956 L 243.6661,402.2784 L 247.5489,395.0445 L 251.5891,387.8974 L 255.7849,380.8404 L 260.1341,373.8769 L 264.6347,367.0104 L 269.2846,360.2440 L 274.0815,353.5810 L 279.0231,347.0246 L 284.1070,340.5780 L 288.0110,335.8446 L 292.1403,340.8850 L 296.1813,345.9965 L 300.1329,351.1774 L 303.9939,356.4261 L 307.7632,361.7412 L 311.4395,367.1209 L 315.0217,372.5638 L 318.5089,378.0680 L 321.8999,383.6320 L 325.1937,389.2541 L 328.3894,394.9325 L 331.4858,400.6656 L 334.4822,406.4517 L 337.3777,412.2890 L 340.1712,418.1756 L 342.8621,424.1100 L 345.4494,430.0901 L 347.9325,436.1144 L 350.3105,442.1808 L 352.5827,448.2877 L 354.7485,454.4331 L 356.8072,460.6153 L 358.7581,466.8322 L 360.6008,473.0822 L 362.3345,479.3632 L 363.9589,485.6733 L 365.4734,492.0108 L 366.8776,498.3736 L 368.1709,504.7598 L 369.3532,511.1676 L 370.4239,517.5949 L 371.3827,524.0399 L 372.2295,530.5005 L 372.9639,536.9749 L 373.5856,543.4611 L 374.0946,549.9571 L 374.4906,556.4609 L 374.7736,562.9707 L 374.9434,569.4843 Z" id="region-I1" style="fill:#243B53;fill-opacity:0.80;stroke:#222222;stroke-width:1.0;stroke-linejoin:round" data-fpp-region-id="16"/>
    <text x="288.00" y="484.37" style="font-size:11px;font-family:sans-serif;text-anchor:middle;dominant-baseline:middle;fill:#333333;pointer-events:none">I1</text>
    <desc id="fpp-tree-data-quilttools">{"tree": {"root_id": 1, "regions": {"1": {"id": 1, "label": "A1", "polygon": [[0, 0], [576.0, 0], [576.0, 576.0], [0, 576.0]], "parent_id": null, "children": [2, 3], "split_boundary": true}, "2": {"id": 2, "label": "A1", "polygon": [[375.0, 0.0], [576.0, 0], [576.0, 576.0], [0, 576.0], [0.0, 375.0], [14.7224, 374.7109], [29.4222, 373.844], [44.0765, 372.4007], [58.6629, 370.3831], [73.1589, 367.7945], [87.542, 364.6387], [101.7902, 360.9207], [115.8814, 356.6462], [129.7939, 351.8218], [143.5063, 346.4548], [156.9974, 340.5537], [170.2464, 334.1274], [183.233, 327.186], [195.937, 319.7401], [208.3388, 311.8011], [220.4195, 303.3814], [232.1602, 294.4938], [243.543, 285.1522], [254.5503, 275.3709], [265.165, 265.165], [275.3709, 254.5503], [285.1522, 243.543], [294.4938, 232.1602], [303.3814, 220.4195], [311.8011, 208.3388], [319.7401, 195.937], [327.186, 183.233], [334.1274, 170.2464], [340.5537, 156.9974], [346.4548, 143.5063], [351.8218, 129.7939], [356.6462, 115.8814], [360.9207, 101.7902], [364.6387, 87.542], [367.7945, 73.1589], [370.3831, 58.6629], [372.4007, 44.0765], [373.844, 29.4222], [374.7109, 14.7224]], "parent_id": 1, "children": [4, 5], "split_boundary": true}, "3": {"id": 3, "label": "A2", "polygon": [[0.0, 375.0], [0, 0], [375.0, 0.0], [374.7109, 14.7224], [373.844, 29.4222], [372.4007, 44.0765], [370.3831, 58.6629], [367.7945, 73.1589], [364.6387, 87.542], [360.9207, 101.7902], [356.6462, 115.8814], [351.8218, 129.7939], [346.4548, 143.5063], [340.5537, 156.9974], [334.1274, 170.2464], [327.186, 183.233], [319.7401, 195.937], [311.8011, 208.3388], [303.3814, 220.4195], [294.4938, 232.1602], [285.1522, 243.543], [275.3709, 254.5503], [265.165, 265.165], [254.5503, 275.3709], [243.543, 285.1522], [232.1602, 294.4938], [220.4195, 303.3814], [208.3388, 311.8011], [195.937, 319.7401], [183.233, 327.186], [170.2464, 334.1274], [156.9974, 340.5537], [143.5063, 346.4548], [129.7939, 351.8218], [115.8814, 356.6462], [101.7902, 360.9207], [87.542, 364.6387], [73.1589, 367.7945], [58.6629, 370.3831], [44.0765, 372.4007], [29.4222, 373.844], [14.7224, 374.7109]], "parent_id": 1, "children": [6, 7], "split_boundary": true}, "4": {"id": 4, "label": "A1", "polygon": [[576.0, 375.0], [576.0, 576.0], [0, 576.0], [0.0, 375.0], [14.7224, 374.7109], [29.4222, 373.844], [44.0765, 372.4007], [58.6629, 370.3831], [73.1589, 367.7945], [87.542, 364.6387], [101.7902, 360.9207], [115.8814, 356.6462], [129.7939, 351.8218], [143.5063, 346.4548], [156.9974, 340.5537], [170.2464, 334.1274], [183.233, 327.186], [195.937, 319.7401], [208.3388, 311.8011], [220.4195, 303.3814], [232.1602, 294.4938], [243.543, 285.1522], [254.5503, 275.3709], [265.165, 265.165], [275.3709, 254.5503], [285.1522, 243.543], [287.960397523253, 240.12119316094845], [293.2869, 246.3703], [298.749, 252.5013], [304.3441, 258.5112], [310.0693, 264.3972], [315.9221, 270.1564], [321.8996, 275.7861], [327.9989, 281.2836], [334.2171, 286.6462], [340.5512, 291.8713], [346.9983, 296.9566], [353.5551, 301.8994], [360.2186, 306.6975], [366.9855, 311.3486], [373.8526, 315.8503], [380.8167, 320.2007], [387.8743, 324.3975], [395.0222, 328.4388], [402.2568, 332.3226], [409.5747, 336.047], [416.9724, 339.6104], [424.4464, 343.0109], [431.993, 346.247], [439.6086, 349.317], [447.2897, 352.2196], [455.0325, 354.9533], [462.8332, 357.5168], [470.6883, 359.9089], [478.5938, 362.1285], [486.546, 364.1744], [494.5411, 366.0457], [502.5753, 367.7415], [510.6447, 369.261], [518.7454, 370.6034], [526.8735, 371.7682], [535.0252, 372.7547], [543.1966, 373.5625], [551.3837, 374.1912], [559.5825, 374.6405], [567.7893, 374.9101]], "parent_id": 2, "children": [8, 9], "split_boundary": true}, "5": {"id": 5, "label": "A2", "polygon": [[287.960397523253, 240.12119316094845], [294.4938, 232.1602], [303.3814, 220.4195], [311.8011, 208.3388], [319.7401, 195.937], [327.186, 183.233], [334.1274, 170.2464], [340.5537, 156.9974], [346.4548, 143.5063], [351.8218, 129.7939], [356.6462, 115.8814], [360.9207, 101.7902], [364.6387, 87.542], [367.7945, 73.1589], [370.3831, 58.6629], [372.4007, 44.0765], [373.844, 29.4222], [374.7109, 14.7224], [375.0, 0.0], [576.0, 0], [576.0, 375.0], [567.7893, 374.9101], [559.5825, 374.6405], [551.3837, 374.1912], [543.1966, 373.5625], [535.0252, 372.7547], [526.8735, 371.7682], [518.7454, 370.6034], [510.6447, 369.261], [502.5753, 367.7415], [494.5411, 366.0457], [486.546, 364.1744], [478.5938, 362.1285], [470.6883, 359.9089], [462.8332, 357.5168], [455.0325, 354.9533], [447.2897, 352.2196], [439.6086, 349.317], [431.993, 346.247], [424.4464, 343.0109], [416.9724, 339.6104], [409.5747, 336.047], [402.2568, 332.3226], [395.0222, 328.4388], [387.8743, 324.3975], [380.8167, 320.2007], [373.8526, 315.8503], [366.9855, 311.3486], [360.2186, 306.6975], [353.5551, 301.8994], [346.9983, 296.9566], [340.5512, 291.8713], [334.2171, 286.6462], [327.9989, 281.2836], [321.8996, 275.7861], [315.9221, 270.1564], [310.0693, 264.3972], [304.3441, 258.5112], [298.749, 252.5013], [293.2869, 246.3703]], "parent_id": 2, "children": [10, 11], "split_boundary": true}, "6": {"id": 6, "label": "A1", "polygon": [[201.0, 0.0], [375.0, 0.0], [374.7109, 14.7224], [373.844, 29.4222], [372.4007, 44.0765], [370.3831, 58.6629], [367.7945, 73.1589], [364.6387, 87.542], [360.9207, 101.7902], [356.6462, 115.8814], [351.8218, 129.7939], [346.4548, 143.5063], [340.5537, 156.9974], [334.1274, 170.2464], [327.186, 183.233], [319.7401, 195.937], [311.8011, 208.3388], [303.3814, 220.4195], [294.4938, 232.1602], [287.960397523253, 240.12119316094848], [283.8325, 235.0811], [279.7927, 229.9701], [275.8423, 224.7896], [271.9826, 219.5413], [268.2145, 214.2268], [264.5394, 208.8476], [260.9583, 203.4053], [257.4723, 197.9017], [254.0824, 192.3383], [250.7896, 186.7169], [247.595, 181.0392], [244.4996, 175.3068], [241.5041, 169.5214], [238.6097, 163.685], [235.817, 157.7991], [233.1271, 151.8656], [230.5406, 145.8862], [228.0584, 139.8629], [225.6812, 133.7973], [223.4097, 127.6913], [221.2446, 121.5468], [219.1866, 115.3656], [217.2363, 109.1496], [215.3943, 102.9007], [213.6611, 96.6207], [212.0373, 90.3115], [210.5233, 83.9751], [209.1197, 77.6133], [207.8267, 71.2281], [206.6449, 64.8214], [205.5746, 58.3952], [204.616, 51.9513], [203.7696, 45.4917], [203.0354, 39.0184], [202.4139, 32.5334], [201.9051, 26.0385], [201.5092, 19.5357], [201.2263, 13.0271], [201.0566, 6.5145]], "parent_id": 3, "children": [], "split_boundary": false}, "7": {"id": 7, "label": "A2", "polygon": [[287.960397523253, 240.12119316094848], [285.1522, 243.543], [275.3709, 254.5503], [265.165, 265.165], [254.5503, 275.3709], [243.543, 285.1522], [232.1602, 294.4938], [220.4195, 303.3814], [208.3388, 311.8011], [195.937, 319.7401], [183.233, 327.186], [170.2464, 334.1274], [156.9974, 340.5537], [143.5063, 346.4548], [129.7939, 351.8218], [115.8814, 356.6462], [101.7902, 360.9207], [87.542, 364.6387], [73.1589, 367.7945], [58.6629, 370.3831], [44.0765, 372.4007], [29.4222, 373.844], [14.7224, 374.7109], [0.0, 375.0], [0, 0], [201.0, 0.0], [201.0566, 6.5145], [201.2263, 13.0271], [201.5092, 19.5357], [201.9051, 26.0385], [202.4139, 32.5334], [203.0354, 39.0184], [203.7696, 45.4917], [204.616, 51.9513], [205.5746, 58.3952], [206.6449, 64.8214], [207.8267, 71.2281], [209.1197, 77.6133], [210.5233, 83.9751], [212.0373, 90.3115], [213.6611, 96.6207], [215.3943, 102.9007], [217.2363, 109.1496], [219.1866, 115.3656], [221.2446, 121.5468], [223.4097, 127.6913], [225.6812, 133.7973], [228.0584, 139.8629], [230.5406, 145.8862], [233.1271, 151.8656], [235.817, 157.7991], [238.6097, 163.685], [241.5041, 169.5214], [244.4996, 175.3068], [247.595, 181.0392], [250.7896, 186.7169], [254.0824, 192.3383], [257.4723, 197.9017], [260.9583, 203.4053], [264.5394, 208.8476], [268.2145, 214.2268], [271.9826, 219.5413], [275.8423, 224.7896], [279.7927, 229.9701], [283.8325, 235.0811]], "parent_id": 3, "children": [12, 13], "split_boundary": true}, "8": {"id": 8, "label": "A1", "polygon": [[201.0, 576.0], [0, 576.0], [0.0, 375.0], [14.7224, 374.7109], [29.4222, 373.844], [44.0765, 372.4007], [58.6629, 370.3831], [73.1589, 367.7945], [87.542, 364.6387], [101.7902, 360.9207], [115.8814, 356.6462], [129.7939, 351.8218], [143.5063, 346.4548], [156.9974, 340.5537], [170.2464, 334.1274], [183.233, 327.186], [195.937, 319.7401], [208.3388, 311.8011], [220.4195, 303.3814], [232.1602, 294.4938], [243.543, 285.1522], [254.5503, 275.3709], [265.165, 265.165], [275.3709, 254.5503], [285.1522, 243.543], [287.960397523253, 240.12119316094845], [293.2869, 246.3703], [298.749, 252.5013], [304.3441, 258.5112], [310.0693, 264.3972], [315.9221, 270.1564], [321.8996, 275.7861], [327.9989, 281.2836], [334.2171, 286.6462], [335.8447003527636, 287.98883346066924], [329.5971, 293.3154], [323.4675, 298.7775], [317.459, 304.3724], [311.5744, 310.0975], [305.8166, 315.9501], [300.1883, 321.9274], [294.6922, 328.0264], [289.3309, 334.2443], [284.107, 340.578], [279.0231, 347.0246], [274.0815, 353.581], [269.2846, 360.244], [264.6347, 367.0104], [260.1341, 373.8769], [255.7849, 380.8404], [251.5891, 387.8974], [247.5489, 395.0445], [243.6661, 402.2784], [239.9426, 409.5956], [236.3802, 416.9925], [232.9806, 424.4657], [229.7453, 432.0114], [226.6761, 439.6262], [223.7743, 447.3064], [221.0413, 455.0482], [218.4785, 462.8481], [216.087, 470.7021], [213.8681, 478.6066], [211.8227, 486.5579], [209.9519, 494.552], [208.2565, 502.5851], [206.7375, 510.6534], [205.3954, 518.753], [204.2309, 526.8801], [203.2447, 535.0307], [202.4371, 543.201], [201.8086, 551.387], [201.3595, 559.5848], [201.0899, 567.7904]], "parent_id": 4, "children": [14, 15], "split_boundary": true}, "9": {"id": 9, "label": "A6", "polygon": [[335.8447003527636, 287.98883346066924], [340.5512, 291.8713], [346.9983, 296.9566], [353.5551, 301.8994], [360.2186, 306.6975], [366.9855, 311.3486], [373.8526, 315.8503], [380.8167, 320.2007], [387.8743, 324.3975], [395.0222, 328.4388], [402.2568, 332.3226], [409.5747, 336.047], [416.9724, 339.6104], [424.4464, 343.0109], [431.993, 346.247], [439.6086, 349.317], [447.2897, 352.2196], [455.0325, 354.9533], [462.8332, 357.5168], [470.6883, 359.9089], [478.5938, 362.1285], [486.546, 364.1744], [494.5411, 366.0457], [502.5753, 367.7415], [510.6447, 369.261], [518.7454, 370.6034], [526.8735, 371.7682], [535.0252, 372.7547], [543.1966, 373.5625], [551.3837, 374.1912], [559.5825, 374.6405], [567.7893, 374.9101], [576.0, 375.0], [576.0, 576.0], [201.0, 576.0], [201.0899, 567.7904], [201.3595, 559.5848], [201.8086, 551.387], [202.4371, 543.201], [203.2447, 535.0307], [204.2309, 526.8801], [205.3954, 518.753], [206.7375, 510.6534], [208.2565, 502.5851], [209.9519, 494.552], [211.8227, 486.5579], [213.8681, 478.6066], [216.087, 470.7021], [218.4785, 462.8481], [221.0413, 455.0482], [223.7743, 447.3064], [226.6761, 439.6262], [229.7453, 432.0114], [232.9806, 424.4657], [236.3802, 416.9925], [239.9426, 409.5956], [243.6661, 402.2784], [247.5489, 395.0445], [251.5891, 387.8974], [255.7849, 380.8404], [260.1341, 373.8769], [264.6347, 367.0104], [269.2846, 360.244], [274.0815, 353.581], [279.0231, 347.0246], [284.107, 340.578], [289.3309, 334.2443], [294.6922, 328.0264], [300.1883, 321.9274], [305.8166, 315.9501], [311.5744, 310.0975], [317.459, 304.3724], [323.4675, 298.7775], [329.5971, 293.3154]], "parent_id": 4, "children": [16, 17], "split_boundary": true}, "10": {"id": 10, "label": "F1", "polygon": [[576.0, 201.0], [576.0, 375.0], [567.7893, 374.9101], [559.5825, 374.6405], [551.3837, 374.1912], [543.1966, 373.5625], [535.0252, 372.7547], [526.8735, 371.7682], [518.7454, 370.6034], [510.6447, 369.261], [502.5753, 367.7415], [494.5411, 366.0457], [486.546, 364.1744], [478.5938, 362.1285], [470.6883, 359.9089], [462.8332, 357.5168], [455.0325, 354.9533], [447.2897, 352.2196], [439.6086, 349.317], [431.993, 346.247], [424.4464, 343.0109], [416.9724, 339.6104], [409.5747, 336.047], [402.2568, 332.3226], [395.0222, 328.4388], [387.8743, 324.3975], [380.8167, 320.2007], [373.8526, 315.8503], [366.9855, 311.3486], [360.2186, 306.6975], [353.5551, 301.8994], [346.9983, 296.9566], [340.5512, 291.8713], [335.8447003527636, 287.9888334606693], [340.8852, 283.8596], [345.9966, 279.8186], [351.1775, 275.867], [356.4263, 272.006], [361.7413, 268.2367], [367.1211, 264.5604], [372.5639, 260.9782], [378.0681, 257.491], [383.6321, 254.1], [389.2542, 250.8062], [394.9326, 247.6106], [400.6658, 244.5141], [406.4518, 241.5177], [412.2891, 238.6223], [418.1757, 235.8287], [424.1101, 233.1379], [430.0902, 230.5505], [436.1145, 228.0675], [442.1809, 225.6895], [448.2878, 223.4173], [454.4332, 221.2515], [460.6154, 219.1928], [466.8323, 217.2418], [473.0822, 215.3992], [479.3632, 213.6654], [485.6734, 212.0411], [492.0109, 210.5266], [498.3737, 209.1224], [504.7599, 207.8291], [511.1676, 206.6468], [517.595, 205.5761], [524.0399, 204.6172], [530.5006, 203.7705], [536.9749, 203.0361], [543.4611, 202.4144], [549.9571, 201.9054], [556.4609, 201.5094], [562.9707, 201.2264], [569.4844, 201.0566]], "parent_id": 5, "children": [], "split_boundary": false}, "11": {"id": 11, "label": "C1", "polygon": [[335.8447003527636, 287.9888334606693], [334.2171, 286.6462], [327.9989, 281.2836], [321.8996, 275.7861], [315.9221, 270.1564], [310.0693, 264.3972], [304.3441, 258.5112], [298.749, 252.5013], [293.2869, 246.3703], [287.960397523253, 240.12119316094845], [294.4938, 232.1602], [303.3814, 220.4195], [311.8011, 208.3388], [319.7401, 195.937], [327.186, 183.233], [334.1274, 170.2464], [340.5537, 156.9974], [346.4548, 143.5063], [351.8218, 129.7939], [356.6462, 115.8814], [360.9207, 101.7902], [364.6387, 87.542], [367.7945, 73.1589], [370.3831, 58.6629], [372.4007, 44.0765], [373.844, 29.4222], [374.7109, 14.7224], [375.0, 0.0], [576.0, 0], [576.0, 201.0], [569.4844, 201.0566], [562.9707, 201.2264], [556.4609, 201.5094], [549.9571, 201.9054], [543.4611, 202.4144], [536.9749, 203.0361], [530.5006, 203.7705], [524.0399, 204.6172], [517.595, 205.5761], [511.1676, 206.6468], [504.7599, 207.8291], [498.3737, 209.1224], [492.0109, 210.5266], [485.6734, 212.0411], [479.3632, 213.6654], [473.0822, 215.3992], [466.8323, 217.2418], [460.6154, 219.1928], [454.4332, 221.2515], [448.2878, 223.4173], [442.1809, 225.6895], [436.1145, 228.0675], [430.0902, 230.5505], [424.1101, 233.1379], [418.1757, 235.8287], [412.2891, 238.6223], [406.4518, 241.5177], [400.6658, 244.5141], [394.9326, 247.6106], [389.2542, 250.8062], [383.6321, 254.1], [378.0681, 257.491], [372.5639, 260.9782], [367.1211, 264.5604], [361.7413, 268.2367], [356.4263, 272.006], [351.1775, 275.867], [345.9966, 279.8186], [340.8852, 283.8596]], "parent_id": 5, "children": [], "split_boundary": false}, "12": {"id": 12, "label": "D1", "polygon": [[240.12119316094845, 287.960397523253], [232.1602, 294.4938], [220.4195, 303.3814], [208.3388, 311.8011], [195.937, 319.7401], [183.233, 327.186], [170.2464, 334.1274], [156.9974, 340.5537], [143.5063, 346.4548], [129.7939, 351.8218], [115.8814, 356.6462], [101.7902, 360.9207], [87.542, 364.6387], [73.1589, 367.7945], [58.6629, 370.3831], [44.0765, 372.4007], [29.4222, 373.844], [14.7224, 374.7109], [0.0, 375.0], [0.0, 201.0], [6.5145, 201.0566], [13.0271, 201.2263], [19.5357, 201.5092], [26.0385, 201.9051], [32.5334, 202.4139], [39.0184, 203.0354], [45.4917, 203.7696], [51.9513, 204.616], [58.3952, 205.5746], [64.8214, 206.6449], [71.2281, 207.8267], [77.6133, 209.1197], [83.9751, 210.5233], [90.3115, 212.0373], [96.6207, 213.6611], [102.9007, 215.3943], [109.1496, 217.2363], [115.3656, 219.1866], [121.5468, 221.2446], [127.6913, 223.4097], [133.7973, 225.6812], [139.8629, 228.0584], [145.8862, 230.5406], [151.8656, 233.1271], [157.7991, 235.817], [163.685, 238.6097], [169.5214, 241.5041], [175.3068, 244.4996], [181.0392, 247.595], [186.7169, 250.7896], [192.3383, 254.0824], [197.9017, 257.4723], [203.4053, 260.9583], [208.8476, 264.5394], [214.2268, 268.2145], [219.5413, 271.9826], [224.7896, 275.8423], [229.9701, 279.7927], [235.0811, 283.8325]], "parent_id": 7, "children": [], "split_boundary": false}, "13": {"id": 13, "label": "B1", "polygon": [[0.0, 201.0], [0, 0], [201.0, 0.0], [201.0566, 6.5145], [201.2263, 13.0271], [201.5092, 19.5357], [201.9051, 26.0385], [202.4139, 32.5334], [203.0354, 39.0184], [203.7696, 45.4917], [204.616, 51.9513], [205.5746, 58.3952], [206.6449, 64.8214], [207.8267, 71.2281], [209.1197, 77.6133], [210.5233, 83.9751], [212.0373, 90.3115], [213.6611, 96.6207], [215.3943, 102.9007], [217.2363, 109.1496], [219.1866, 115.3656], [221.2446, 121.5468], [223.4097, 127.6913], [225.6812, 133.7973], [228.0584, 139.8629], [230.5406, 145.8862], [233.1271, 151.8656], [235.817, 157.7991], [238.6097, 163.685], [241.5041, 169.5214], [244.4996, 175.3068], [247.595, 181.0392], [250.7896, 186.7169], [254.0824, 192.3383], [257.4723, 197.9017], [260.9583, 203.4053], [264.5394, 208.8476], [268.2145, 214.2268], [271.9826, 219.5413], [275.8423, 224.7896], [279.7927, 229.9701], [283.8325, 235.0811], [287.960397523253, 240.12119316094848], [285.1522, 243.543], [275.3709, 254.5503], [265.165, 265.165], [254.5503, 275.3709], [243.543, 285.1522], [240.12119316094845, 287.960397523253], [235.0811, 283.8325], [229.9701, 279.7927], [224.7896, 275.8423], [219.5413, 271.9826], [214.2268, 268.2145], [208.8476, 264.5394], [203.4053, 260.9583], [197.9017, 257.4723], [192.3383, 254.0824], [186.7169, 250.7896], [181.0392, 247.595], [175.3068, 244.4996], [169.5214, 241.5041], [163.685, 238.6097], [157.7991, 235.817], [151.8656, 233.1271], [145.8862, 230.5406], [139.8629, 228.0584], [133.7973, 225.6812], [127.6913, 223.4097], [121.5468, 221.2446], [115.3656, 219.1866], [109.1496, 217.2363], [102.9007, 215.3943], [96.6207, 213.6611], [90.3115, 212.0373], [83.9751, 210.5233], [77.6133, 209.1197], [71.2281, 207.8267], [64.8214, 206.6449], [58.3952, 205.5746], [51.9513, 204.616], [45.4917, 203.7696], [39.0184, 203.0354], [32.5334, 202.4139], [26.0385, 201.9051], [19.5357, 201.5092], [13.0271, 201.2263], [6.5145, 201.0566]], "parent_id": 7, "children": [], "split_boundary": false}, "14": {"id": 14, "label": "E1", "polygon": [[240.12119316094848, 287.960397523253], [243.543, 285.1522], [254.5503, 275.3709], [265.165, 265.165], [275.3709, 254.5503], [285.1522, 243.543], [287.960397523253, 240.12119316094845], [293.2869, 246.3703], [298.749, 252.5013], [304.3441, 258.5112], [310.0693, 264.3972], [315.9221, 270.1564], [321.8996, 275.7861], [327.9989, 281.2836], [334.2171, 286.6462], [335.8447003527636, 287.98883346066924], [329.5971, 293.3154], [323.4675, 298.7775], [317.459, 304.3724], [311.5744, 310.0975], [305.8166, 315.9501], [300.1883, 321.9274], [294.6922, 328.0264], [289.3309, 334.2443], [288.0110446537948, 335.84455417911136], [286.9224, 334.5449], [285.8278, 333.2502], [284.7274, 331.9605], [283.6212, 330.6757], [282.5092, 329.396], [281.3914, 328.1213], [280.2679, 326.8517], [279.1387, 325.5871], [278.0037, 324.3277], [276.8631, 323.0734], [275.7168, 321.8243], [274.5648, 320.5804], [273.4073, 319.3417], [272.2441, 318.1083], [271.0754, 316.8801], [269.9012, 315.6572], [268.7214, 314.4397], [267.5362, 313.2275], [266.3454, 312.0206], [265.1493, 310.8192], [263.9477, 309.6232], [262.7407, 308.4326], [261.5284, 307.2475], [260.3107, 306.0679], [259.0876, 304.8938], [257.8593, 303.7252], [256.6258, 302.5622], [255.3869, 301.4048], [254.1429, 300.253], [252.8936, 299.1069], [251.6392, 297.9664], [250.3797, 296.8316], [249.115, 295.7025], [247.8452, 294.5791], [246.5704, 293.4614], [245.2905, 292.3496], [244.0057, 291.2435], [242.7158, 290.1433], [241.421, 289.0489]], "parent_id": 8, "children": [], "split_boundary": false}, "15": {"id": 15, "label": "G1", "polygon": [[288.0110446537948, 335.84455417911136], [284.107, 340.578], [279.0231, 347.0246], [274.0815, 353.581], [269.2846, 360.244], [264.6347, 367.0104], [260.1341, 373.8769], [255.7849, 380.8404], [251.5891, 387.8974], [247.5489, 395.0445], [243.6661, 402.2784], [239.9426, 409.5956], [236.3802, 416.9925], [232.9806, 424.4657], [229.7453, 432.0114], [226.6761, 439.6262], [223.7743, 447.3064], [221.0413, 455.0482], [218.4785, 462.8481], [216.087, 470.7021], [213.8681, 478.6066], [211.8227, 486.5579], [209.9519, 494.552], [208.2565, 502.5851], [206.7375, 510.6534], [205.3954, 518.753], [204.2309, 526.8801], [203.2447, 535.0307], [202.4371, 543.201], [201.8086, 551.387], [201.3595, 559.5848], [201.0899, 567.7904], [201.0, 576.0], [0, 576.0], [0.0, 375.0], [14.7224, 374.7109], [29.4222, 373.844], [44.0765, 372.4007], [58.6629, 370.3831], [73.1589, 367.7945], [87.542, 364.6387], [101.7902, 360.9207], [115.8814, 356.6462], [129.7939, 351.8218], [143.5063, 346.4548], [156.9974, 340.5537], [170.2464, 334.1274], [183.233, 327.186], [195.937, 319.7401], [208.3388, 311.8011], [220.4195, 303.3814], [232.1602, 294.4938], [240.12119316094848, 287.960397523253], [241.421, 289.0489], [242.7158, 290.1433], [244.0057, 291.2435], [245.2905, 292.3496], [246.5704, 293.4614], [247.8452, 294.5791], [249.115, 295.7025], [250.3797, 296.8316], [251.6392, 297.9664], [252.8936, 299.1069], [254.1429, 300.253], [255.3869, 301.4048], [256.6258, 302.5622], [257.8593, 303.7252], [259.0876, 304.8938], [260.3107, 306.0679], [261.5284, 307.2475], [262.7407, 308.4326], [263.9477, 309.6232], [265.1493, 310.8192], [266.3454, 312.0206], [267.5362, 313.2275], [268.7214, 314.4397], [269.9012, 315.6572], [271.0754, 316.8801], [272.2441, 318.1083], [273.4073, 319.3417], [274.5648, 320.5804], [275.7168, 321.8243], [276.8631, 323.0734], [278.0037, 324.3277], [279.1387, 325.5871], [280.2679, 326.8517], [281.3914, 328.1213], [282.5092, 329.396], [283.6212, 330.6757], [284.7274, 331.9605], [285.8278, 333.2502], [286.9224, 334.5449]], "parent_id": 8, "children": [], "split_boundary": false}, "16": {"id": 16, "label": "I1", "polygon": [[375.0, 576.0], [201.0, 576.0], [201.0899, 567.7904], [201.3595, 559.5848], [201.8086, 551.387], [202.4371, 543.201], [203.2447, 535.0307], [204.2309, 526.8801], [205.3954, 518.753], [206.7375, 510.6534], [208.2565, 502.5851], [209.9519, 494.552], [211.8227, 486.5579], [213.8681, 478.6066], [216.087, 470.7021], [218.4785, 462.8481], [221.0413, 455.0482], [223.7743, 447.3064], [226.6761, 439.6262], [229.7453, 432.0114], [232.9806, 424.4657], [236.3802, 416.9925], [239.9426, 409.5956], [243.6661, 402.2784], [247.5489, 395.0445], [251.5891, 387.8974], [255.7849, 380.8404], [260.1341, 373.8769], [264.6347, 367.0104], [269.2846, 360.244], [274.0815, 353.581], [279.0231, 347.0246], [284.107, 340.578], [288.01104465379484, 335.8445541791113], [292.1403, 340.885], [296.1813, 345.9965], [300.1329, 351.1774], [303.9939, 356.4261], [307.7632, 361.7412], [311.4395, 367.1209], [315.0217, 372.5638], [318.5089, 378.068], [321.8999, 383.632], [325.1937, 389.2541], [328.3894, 394.9325], [331.4858, 400.6656], [334.4822, 406.4517], [337.3777, 412.289], [340.1712, 418.1756], [342.8621, 424.11], [345.4494, 430.0901], [347.9325, 436.1144], [350.3105, 442.1808], [352.5827, 448.2877], [354.7485, 454.4331], [356.8072, 460.6153], [358.7581, 466.8322], [360.6008, 473.0822], [362.3345, 479.3632], [363.9589, 485.6733], [365.4734, 492.0108], [366.8776, 498.3736], [368.1709, 504.7598], [369.3532, 511.1676], [370.4239, 517.5949], [371.3827, 524.0399], [372.2295, 530.5005], [372.9639, 536.9749], [373.5856, 543.4611], [374.0946, 549.9571], [374.4906, 556.4609], [374.7736, 562.9707], [374.9434, 569.4843]], "parent_id": 9, "children": [], "split_boundary": false}, "17": {"id": 17, "label": "H1", "polygon": [[288.01104465379484, 335.8445541791113], [289.3309, 334.2443], [294.6922, 328.0264], [300.1883, 321.9274], [305.8166, 315.9501], [311.5744, 310.0975], [317.459, 304.3724], [323.4675, 298.7775], [329.5971, 293.3154], [335.8447003527636, 287.98883346066924], [340.5512, 291.8713], [346.9983, 296.9566], [353.5551, 301.8994], [360.2186, 306.6975], [366.9855, 311.3486], [373.8526, 315.8503], [380.8167, 320.2007], [387.8743, 324.3975], [395.0222, 328.4388], [402.2568, 332.3226], [409.5747, 336.047], [416.9724, 339.6104], [424.4464, 343.0109], [431.993, 346.247], [439.6086, 349.317], [447.2897, 352.2196], [455.0325, 354.9533], [462.8332, 357.5168], [470.6883, 359.9089], [478.5938, 362.1285], [486.546, 364.1744], [494.5411, 366.0457], [502.5753, 367.7415], [510.6447, 369.261], [518.7454, 370.6034], [526.8735, 371.7682], [535.0252, 372.7547], [543.1966, 373.5625], [551.3837, 374.1912], [559.5825, 374.6405], [567.7893, 374.9101], [576.0, 375.0], [576.0, 576.0], [375.0, 576.0], [374.9434, 569.4843], [374.7736, 562.9707], [374.4906, 556.4609], [374.0946, 549.9571], [373.5856, 543.4611], [372.9639, 536.9749], [372.2295, 530.5005], [371.3827, 524.0399], [370.4239, 517.5949], [369.3532, 511.1676], [368.1709, 504.7598], [366.8776, 498.3736], [365.4734, 492.0108], [363.9589, 485.6733], [362.3345, 479.3632], [360.6008, 473.0822], [358.7581, 466.8322], [356.8072, 460.6153], [354.7485, 454.4331], [352.5827, 448.2877], [350.3105, 442.1808], [347.9325, 436.1144], [345.4494, 430.0901], [342.8621, 424.11], [340.1712, 418.1756], [337.3777, 412.289], [334.4822, 406.4517], [331.4858, 400.6656], [328.3894, 394.9325], [325.1937, 389.2541], [321.8999, 383.632], [318.5089, 378.068], [315.0217, 372.5638], [311.4395, 367.1209], [307.7632, 361.7412], [303.9939, 356.4261], [300.1329, 351.1774], [296.1813, 345.9965], [292.1403, 340.885]], "parent_id": 9, "children": [], "split_boundary": false}}, "curves": [[[375.0, 0.0], [374.7109, 14.7224], [373.844, 29.4222], [372.4007, 44.0765], [370.3831, 58.6629], [367.7945, 73.1589], [364.6387, 87.542], [360.9207, 101.7902], [356.6462, 115.8814], [351.8218, 129.7939], [346.4548, 143.5063], [340.5537, 156.9974], [334.1274, 170.2464], [327.186, 183.233], [319.7401, 195.937], [311.8011, 208.3388], [303.3814, 220.4195], [294.4938, 232.1602], [285.1522, 243.543], [275.3709, 254.5503], [265.165, 265.165], [254.5503, 275.3709], [243.543, 285.1522], [232.1602, 294.4938], [220.4195, 303.3814], [208.3388, 311.8011], [195.937, 319.7401], [183.233, 327.186], [170.2464, 334.1274], [156.9974, 340.5537], [143.5063, 346.4548], [129.7939, 351.8218], [115.8814, 356.6462], [101.7902, 360.9207], [87.542, 364.6387], [73.1589, 367.7945], [58.6629, 370.3831], [44.0765, 372.4007], [29.4222, 373.844], [14.7224, 374.7109], [0.0, 375.0]], [[576.0, 375.0], [567.7893, 374.9101], [559.5825, 374.6405], [551.3837, 374.1912], [543.1966, 373.5625], [535.0252, 372.7547], [526.8735, 371.7682], [518.7454, 370.6034], [510.6447, 369.261], [502.5753, 367.7415], [494.5411, 366.0457], [486.546, 364.1744], [478.5938, 362.1285], [470.6883, 359.9089], [462.8332, 357.5168], [455.0325, 354.9533], [447.2897, 352.2196], [439.6086, 349.317], [431.993, 346.247], [424.4464, 343.0109], [416.9724, 339.6104], [409.5747, 336.047], [402.2568, 332.3226], [395.0222, 328.4388], [387.8743, 324.3975], [380.8167, 320.2007], [373.8526, 315.8503], [366.9855, 311.3486], [360.2186, 306.6975], [353.5551, 301.8994], [346.9983, 296.9566], [340.5512, 291.8713], [334.2171, 286.6462], [327.9989, 281.2836], [321.8996, 275.7861], [315.9221, 270.1564], [310.0693, 264.3972], [304.3441, 258.5112], [298.749, 252.5013], [293.2869, 246.3703], [287.9604, 240.1212]], [[201.0, 0.0], [201.0566, 6.5145], [201.2263, 13.0271], [201.5092, 19.5357], [201.9051, 26.0385], [202.4139, 32.5334], [203.0354, 39.0184], [203.7696, 45.4917], [204.616, 51.9513], [205.5746, 58.3952], [206.6449, 64.8214], [207.8267, 71.2281], [209.1197, 77.6133], [210.5233, 83.9751], [212.0373, 90.3115], [213.6611, 96.6207], [215.3943, 102.9007], [217.2363, 109.1496], [219.1866, 115.3656], [221.2446, 121.5468], [223.4097, 127.6913], [225.6812, 133.7973], [228.0584, 139.8629], [230.5406, 145.8862], [233.1271, 151.8656], [235.817, 157.7991], [238.6097, 163.685], [241.5041, 169.5214], [244.4996, 175.3068], [247.595, 181.0392], [250.7896, 186.7169], [254.0824, 192.3383], [257.4723, 197.9017], [260.9583, 203.4053], [264.5394, 208.8476], [268.2145, 214.2268], [271.9826, 219.5413], [275.8423, 224.7896], [279.7927, 229.9701], [283.8325, 235.0811], [287.9604, 240.1212]], [[201.0, 576.0], [201.0899, 567.7904], [201.3595, 559.5848], [201.8086, 551.387], [202.4371, 543.201], [203.2447, 535.0307], [204.2309, 526.8801], [205.3954, 518.753], [206.7375, 510.6534], [208.2565, 502.5851], [209.9519, 494.552], [211.8227, 486.5579], [213.8681, 478.6066], [216.087, 470.7021], [218.4785, 462.8481], [221.0413, 455.0482], [223.7743, 447.3064], [226.6761, 439.6262], [229.7453, 432.0114], [232.9806, 424.4657], [236.3802, 416.9925], [239.9426, 409.5956], [243.6661, 402.2784], [247.5489, 395.0445], [251.5891, 387.8974], [255.7849, 380.8404], [260.1341, 373.8769], [264.6347, 367.0104], [269.2846, 360.244], [274.0815, 353.581], [279.0231, 347.0246], [284.107, 340.578], [289.3309, 334.2443], [294.6922, 328.0264], [300.1883, 321.9274], [305.8166, 315.9501], [311.5744, 310.0975], [317.459, 304.3724], [323.4675, 298.7775], [329.5971, 293.3154], [335.8447, 287.9888]], [[576.0, 201.0], [569.4844, 201.0566], [562.9707, 201.2264], [556.4609, 201.5094], [549.9571, 201.9054], [543.4611, 202.4144], [536.9749, 203.0361], [530.5006, 203.7705], [524.0399, 204.6172], [517.595, 205.5761], [511.1676, 206.6468], [504.7599, 207.8291], [498.3737, 209.1224], [492.0109, 210.5266], [485.6734, 212.0411], [479.3632, 213.6654], [473.0822, 215.3992], [466.8323, 217.2418], [460.6154, 219.1928], [454.4332, 221.2515], [448.2878, 223.4173], [442.1809, 225.6895], [436.1145, 228.0675], [430.0902, 230.5505], [424.1101, 233.1379], [418.1757, 235.8287], [412.2891, 238.6223], [406.4518, 241.5177], [400.6658, 244.5141], [394.9326, 247.6106], [389.2542, 250.8062], [383.6321, 254.1], [378.0681, 257.491], [372.5639, 260.9782], [367.1211, 264.5604], [361.7413, 268.2367], [356.4263, 272.006], [351.1775, 275.867], [345.9966, 279.8186], [340.8852, 283.8596], [335.8447, 287.9888]], [[240.1212, 287.9604], [235.0811, 283.8325], [229.9701, 279.7927], [224.7896, 275.8423], [219.5413, 271.9826], [214.2268, 268.2145], [208.8476, 264.5394], [203.4053, 260.9583], [197.9017, 257.4723], [192.3383, 254.0824], [186.7169, 250.7896], [181.0392, 247.595], [175.3068, 244.4996], [169.5214, 241.5041], [163.685, 238.6097], [157.7991, 235.817], [151.8656, 233.1271], [145.8862, 230.5406], [139.8629, 228.0584], [133.7973, 225.6812], [127.6913, 223.4097], [121.5468, 221.2446], [115.3656, 219.1866], [109.1496, 217.2363], [102.9007, 215.3943], [96.6207, 213.6611], [90.3115, 212.0373], [83.9751, 210.5233], [77.6133, 209.1197], [71.2281, 207.8267], [64.8214, 206.6449], [58.3952, 205.5746], [51.9513, 204.616], [45.4917, 203.7696], [39.0184, 203.0354], [32.5334, 202.4139], [26.0385, 201.9051], [19.5357, 201.5092], [13.0271, 201.2263], [6.5145, 201.0566], [0.0, 201.0]], [[240.1212, 287.9604], [241.421, 289.0489], [242.7158, 290.1433], [244.0057, 291.2435], [245.2905, 292.3496], [246.5704, 293.4614], [247.8452, 294.5791], [249.115, 295.7025], [250.3797, 296.8316], [251.6392, 297.9664], [252.8936, 299.1069], [254.1429, 300.253], [255.3869, 301.4048], [256.6258, 302.5622], [257.8593, 303.7252], [259.0876, 304.8938], [260.3107, 306.0679], [261.5284, 307.2475], [262.7407, 308.4326], [263.9477, 309.6232], [265.1493, 310.8192], [266.3454, 312.0206], [267.5362, 313.2275], [268.7214, 314.4397], [269.9012, 315.6572], [271.0754, 316.8801], [272.2441, 318.1083], [273.4073, 319.3417], [274.5648, 320.5804], [275.7168, 321.8243], [276.8631, 323.0734], [278.0037, 324.3277], [279.1387, 325.5871], [280.2679, 326.8517], [281.3914, 328.1213], [282.5092, 329.396], [283.6212, 330.6757], [284.7274, 331.9605], [285.8278, 333.2502], [286.9224, 334.5449], [288.011, 335.8446]], [[375.0, 576.0], [374.9434, 569.4843], [374.7736, 562.9707], [374.4906, 556.4609], [374.0946, 549.9571], [373.5856, 543.4611], [372.9639, 536.9749], [372.2295, 530.5005], [371.3827, 524.0399], [370.4239, 517.5949], [369.3532, 511.1676], [368.1709, 504.7598], [366.8776, 498.3736], [365.4734, 492.0108], [363.9589, 485.6733], [362.3345, 479.3632], [360.6008, 473.0822], [358.7581, 466.8322], [356.8072, 460.6153], [354.7485, 454.4331], [352.5827, 448.2877], [350.3105, 442.1808], [347.9325, 436.1144], [345.4494, 430.0901], [342.8621, 424.11], [340.1712, 418.1756], [337.3777, 412.289], [334.4822, 406.4517], [331.4858, 400.6656], [328.3894, 394.9325], [325.1937, 389.2541], [321.8999, 383.632], [318.5089, 378.068], [315.0217, 372.5638], [311.4395, 367.1209], [307.7632, 361.7412], [303.9939, 356.4261], [300.1329, 351.1774], [296.1813, 345.9965], [292.1403, 340.885], [288.011, 335.8446]]]}, "prefs": {"show_sa": false, "sa_in": 0.25, "color_mode": "piece", "custom_colors": {"6": "#243B53", "10": "#243B53", "11": "#A4BBA0", "12": "#243B53", "13": "#A4BBA0", "14": "#EFE5D0", "15": "#A4BBA0", "16": "#243B53", "17": "#A4BBA0"}, "group_by_color": false, "description": "Overlapping corner arcs weaving a four-petal star.", "tags": ["curve", "advanced"]}}</desc>
  </g>
</svg>
